<?xml version="1.0" standalone="no"?>
<!DOCTYPE svg PUBLIC "-//W3C//DTD SVG 20010904//EN"
 "http://www.w3.org/TR/2001/REC-SVG-20010904/DTD/svg10.dtd">
<svg version="1.0" xmlns="http://www.w3.org/2000/svg"
 width="1000.000000pt" height="1000.000000pt" viewBox="0 0 1000.000000 1000.000000"
 preserveAspectRatio="xMidYMid meet">

<g transform="translate(0.000000,1000.000000) scale(0.100000,-0.100000)"
fill="#000000" stroke="none">
<path d="M4037 5600 c-31 -25 -51 -80 -42 -119 14 -65 106 -109 165 -79 36 20
72 78 67 111 -3 25 -1 27 29 27 23 0 37 -6 44 -19 6 -13 10 -173 10 -450 l0
-431 -50 0 -50 0 0 307 0 306 -142 -6 c-79 -4 -171 -7 -205 -7 l-63 0 0 -35
c0 -34 1 -35 39 -35 22 0 42 -4 45 -9 6 -9 -155 -413 -162 -406 -2 2 -42 95
-87 207 l-84 203 40 3 c37 3 39 5 39 38 l0 34 -160 0 -160 0 0 -34 c0 -34 1
-35 48 -38 45 -3 48 -5 60 -43 14 -39 12 -43 -45 -181 -32 -78 -62 -142 -67
-143 -5 -1 -40 73 -77 166 -92 224 -88 203 -40 203 40 0 41 1 41 35 l0 35
-175 0 -175 0 0 -34 c0 -34 1 -35 46 -38 l46 -3 117 -285 c64 -157 120 -291
124 -297 5 -7 24 -13 43 -13 40 0 41 0 150 272 32 81 61 148 64 148 3 0 44
-93 90 -207 l85 -208 36 -3 c21 -2 40 2 46 10 5 7 58 132 117 278 59 146 114
275 122 288 16 24 53 29 72 10 9 -9 12 -82 12 -265 l0 -253 -55 0 -55 0 0 -34
0 -33 315 0 315 0 0 28 c0 16 2 29 4 29 2 0 23 -11 48 -25 98 -55 249 -55 353
0 l45 24 0 -34 0 -35 135 7 135 6 0 -111 0 -112 -50 0 -50 0 0 -35 0 -35 191
0 190 0 -3 33 c-3 31 -4 32 -55 35 l-53 3 0 138 0 138 62 -31 c56 -28 71 -31
148 -30 94 1 179 25 234 67 l32 25 31 -29 c38 -33 106 -55 201 -65 99 -9 174
14 228 71 l42 43 5 -28 c12 -57 64 -80 181 -80 48 0 75 5 86 15 15 14 22 13
61 -1 28 -11 77 -17 134 -18 92 -1 98 1 218 62 4 2 7 -13 7 -34 l0 -37 61 7
c34 3 95 6 135 6 l74 0 0 35 c0 32 -2 35 -31 35 -17 0 -39 5 -50 10 -18 10
-19 26 -19 490 l0 480 -74 0 c-40 0 -101 -3 -135 -6 l-61 -7 0 -33 c0 -32 1
-33 47 -36 41 -3 48 -6 54 -28 7 -27 12 -320 5 -320 -2 0 -28 12 -57 28 -43
22 -70 28 -136 31 -142 6 -272 -50 -337 -145 l-24 -36 -12 36 c-16 49 -87 109
-157 132 -69 22 -243 25 -313 5 -61 -17 -107 -54 -115 -91 l-7 -31 -47 44
c-68 64 -124 82 -252 82 -99 0 -110 -2 -167 -32 l-62 -32 0 36 0 36 -125 -6
-125 -7 0 190 0 190 -82 0 c-46 0 -107 -3 -135 -6 -52 -7 -53 -7 -53 -40 0
-33 2 -34 38 -34 21 0 43 -5 50 -12 8 -8 12 -62 12 -175 l0 -163 -52 27 c-49
26 -62 28 -163 28 -98 0 -116 -3 -166 -26 -67 -32 -133 -89 -159 -138 l-19
-36 -1 289 0 289 -132 -6 c-80 -3 -134 -10 -136 -16 -2 -7 -11 -6 -25 4 -32
22 -109 19 -140 -5z m874 -411 c21 -7 54 -25 73 -41 l36 -29 0 -199 c0 -198 0
-199 -25 -228 -57 -68 -193 -98 -261 -58 -73 43 -99 127 -92 299 6 161 31 213
118 251 42 18 99 20 151 5z m1425 -5 c48 -23 74 -77 74 -152 l0 -59 -82 -7
c-85 -7 -235 -38 -267 -56 -16 -8 -19 -4 -24 35 -4 25 -9 56 -13 70 -6 24 -5
24 24 14 55 -19 122 30 122 89 0 9 -7 30 -15 46 -8 15 -15 30 -15 32 0 2 36 4
81 4 54 0 92 -5 115 -16z m692 0 c20 -8 52 -29 70 -46 l32 -32 0 -188 0 -187
-31 -36 c-57 -64 -138 -91 -219 -74 -52 12 -83 38 -113 94 -19 35 -22 56 -22
180 0 147 9 192 47 241 46 58 158 81 236 48z m-1300 -8 c89 -46 136 -186 113
-337 -14 -85 -38 -135 -85 -177 -77 -67 -174 -62 -252 13 l-44 42 0 189 0 190
33 32 c17 17 48 38 67 46 44 19 133 20 168 2z m-450 -18 c9 -9 12 -82 12 -265
l0 -253 -33 0 c-18 0 -38 5 -45 12 -9 9 -12 82 -12 265 l0 253 33 0 c18 0 38
-5 45 -12z m1132 -330 c0 -142 -22 -176 -135 -207 -52 -14 -109 1 -147 39 -23
24 -28 37 -28 79 0 44 5 56 36 91 40 44 113 76 204 89 30 5 58 9 63 10 4 0 7
-45 7 -101z m-1872 -160 l26 -28 -47 0 -47 0 0 63 0 62 21 -35 c12 -19 33 -47
47 -62z m2112 -26 c-4 -1 -19 2 -33 7 -22 9 -27 17 -27 47 l0 36 33 -44 c19
-24 31 -44 27 -46z"/>
</g>
</svg>
