<?xml version="1.0" standalone="no"?>
<!DOCTYPE svg PUBLIC "-//W3C//DTD SVG 20010904//EN"
 "http://www.w3.org/TR/2001/REC-SVG-20010904/DTD/svg10.dtd">
<svg version="1.0" xmlns="http://www.w3.org/2000/svg"
 width="1000.000000pt" height="1000.000000pt" viewBox="0 0 1000.000000 1000.000000"
 preserveAspectRatio="xMidYMid meet">

<g transform="translate(0.000000,1000.000000) scale(0.100000,-0.100000)"
fill="#000000" stroke="none">
<path d="M3410 7353 c-148 -9 -310 -45 -410 -91 -248 -116 -434 -302 -568
-568 -85 -170 -174 -400 -203 -529 -72 -323 -26 -684 130 -1007 236 -489 677
-1065 1036 -1353 189 -152 792 -563 1130 -770 88 -54 220 -139 293 -189 73
-50 144 -98 157 -106 30 -18 18 -24 207 106 73 50 205 135 293 189 338 207
941 618 1130 770 362 290 817 886 1042 1365 139 295 189 635 137 934 -25 146
-113 385 -218 595 -184 365 -484 591 -851 641 -109 14 -258 18 -385 9 -316
-24 -533 -104 -854 -317 -170 -113 -249 -176 -374 -302 l-103 -104 -72 75
c-180 188 -428 369 -677 495 -154 77 -350 132 -530 149 -76 7 -245 11 -310 8z
m385 -77 c166 -28 349 -89 475 -159 194 -107 420 -266 540 -381 41 -40 101
-94 133 -120 l57 -48 78 65 c42 36 95 84 117 107 121 126 477 361 665 438 175
72 354 109 575 119 160 6 325 -8 430 -38 226 -65 423 -217 571 -442 108 -163
245 -488 289 -682 45 -202 32 -459 -34 -700 -118 -426 -666 -1202 -1105 -1565
-176 -145 -808 -578 -1146 -784 -133 -81 -345 -220 -412 -270 l-28 -20 -27 20
c-68 50 -280 189 -413 270 -182 110 -750 489 -931 620 -258 186 -427 345 -636
595 -214 255 -430 575 -551 814 -108 212 -147 332 -182 560 -16 104 -12 353 6
417 3 10 7 28 9 40 19 101 117 364 195 519 189 378 469 596 820 639 104 12
397 4 505 -14z"/>
</g>
</svg>
